<?xml version="1.0" encoding="utf-8"?>
<!-- Generator: Adobe Illustrator 22.1.0, SVG Export Plug-In . SVG Version: 6.00 Build 0)  -->
<svg version="1.1" id="Layer_1" xmlns="http://www.w3.org/2000/svg" xmlns:xlink="http://www.w3.org/1999/xlink" x="0px" y="0px"
	 viewBox="0 0 1100 450" style="enable-background:new 0 0 1100 450;" xml:space="preserve">
<style type="text/css">
	.st0{fill:#FC510B;}
	.st1{fill:#6AC5F4;}
</style>
<g>
	<g>
		<path class="st0" d="M948,412.8l-0.4,0l-797.4-37.4c0,0,0,0,0,0c-25.9,0-48.4-18.7-53.2-44.5l-46.1-174
			c-2.8-15.3,1.2-31.1,10.8-43.4c9.6-12.2,24-19.8,39.5-20.8l890.9-55.5c16.6-1,32.5,5.4,43.7,17.6c11.2,12.2,16.2,28.7,13.7,45.1
			l-47.5,266.7C997.8,393.3,975.1,412.8,948,412.8z M66.1,153.8l46.1,174c3.4,18.6,19.5,32,38.3,32l797.6,37.4
			c19.3-0.1,35.4-14,38.3-33.1L1034,97.5c1.8-11.5-1.8-23.3-9.8-32c-8-8.7-19.3-13.3-31.2-12.6l-890.9,55.5
			c-11.1,0.7-21.4,6.1-28.2,14.8C67.1,131.8,64.3,143,66.1,153.8z"/>
	</g>
	<g>
		<g>
			<path class="st1" d="M192,303.4h-21.1c-5.8,0-10.5-1.9-14-5.7c-3.6-3.8-5.4-8.3-5.4-13.5c0-0.6,0-1.2,0.1-1.8
				c0.1-0.5,0.1-1.1,0.1-1.8c0.2-0.5,0.3-1,0.5-1.5c0.2-0.5,0.3-1.1,0.5-1.8l15.9-49.9h24.6l-16.9,52.7h23.2L192,303.4z
				 M200.8,203.6c-3,3.2-6.8,4.8-11.4,4.8c-4.4,0-8.1-1.6-11.2-4.8c-3.1-3.2-4.7-7-4.7-11.4s1.6-8.1,4.7-11.2
				c3.1-3.1,6.9-4.7,11.2-4.7c4.5,0,8.3,1.6,11.4,4.7c3,3.1,4.6,6.9,4.6,11.2S203.8,200.4,200.8,203.6z"/>
			<path class="st1" d="M268.6,269.2c-0.2,0.6-0.4,1.4-0.6,2.3c-0.2,0.9-0.4,1.9-0.4,2.8c0,0.6,0.1,1.2,0.2,1.8
				c0.2,0.5,0.4,1.1,0.7,1.8c0.5,0.6,1.1,1.1,1.9,1.4c0.8,0.3,1.6,0.5,2.3,0.7c0.3,0.2,0.6,0.2,0.9,0.2c0.3,0,0.6,0,0.9,0h15.2
				l-7.5,23.2h-7.7c-4.4,0-8.6-0.8-12.6-2.5c-4.1-1.6-7.6-4.2-10.5-7.6c-3.4,2.8-7.1,5.1-11,6.8c-3.9,1.7-7.8,2.7-11.7,3
				c-0.6,0.2-1.2,0.2-1.8,0.2c-0.5,0-1.1,0-1.8,0c-9.7,0-16.7-2.8-21.2-8.4c-4.4-5.6-6.7-12.2-6.7-19.7c0-1.1,0-2.1,0.1-3.2
				c0.1-1,0.2-2,0.3-2.9c0.3-2,0.8-4.1,1.4-6.2c0.6-2.1,1.3-4.1,2.1-6c3.4-7.6,8.8-14.4,16-20.2c7.3-5.9,15.9-8.8,25.9-8.8h14.3
				l22.2-68.6h24.3L268.6,269.2z M243.3,251c-5.5,0-10.3,2.2-14.6,6.6c-4.3,4.4-7,9.1-8.1,14.3c0,0.3,0,0.6-0.1,0.9
				c-0.1,0.3-0.1,0.6-0.1,0.9c-0.2,2,0,3.6,0.6,4.8c0.5,1.2,2,1.8,4.3,1.8c0.3,0,0.6,0,0.8,0c0.2,0,0.5,0,0.8,0
				c3.9-0.5,7.6-2.2,11-5.3c3.4-3,5.9-6.4,7.3-9.9c0.2-0.3,0.3-0.6,0.4-0.9c0.1-0.3,0.2-0.6,0.3-0.9l4.2-12.2H243.3z"/>
			<path class="st1" d="M328.2,303.4h-21.1c-5.8,0-10.5-1.9-14-5.7c-3.6-3.8-5.4-8.3-5.4-13.5c0-0.6,0-1.2,0.1-1.8
				c0.1-0.5,0.1-1.1,0.1-1.8c0.2-0.5,0.3-1,0.5-1.5c0.2-0.5,0.3-1.1,0.5-1.8l15.9-49.9h24.6l-16.9,52.7h23.2L328.2,303.4z
				 M337,203.6c-3,3.2-6.8,4.8-11.4,4.8c-4.4,0-8.1-1.6-11.2-4.8c-3.1-3.2-4.7-7-4.7-11.4s1.6-8.1,4.7-11.2
				c3.1-3.1,6.9-4.7,11.2-4.7c4.5,0,8.3,1.6,11.4,4.7c3,3.1,4.6,6.9,4.6,11.2S340.1,200.4,337,203.6z"/>
			<path class="st1" d="M387.9,275.8h-51.5l7.5-23.2h51.7L387.9,275.8z"/>
			<path class="st1" d="M483.3,269.7H472c-2,9.1-6.8,16.9-14.4,23.6c-7.6,6.7-16.2,10.1-25.9,10.1c-0.5,0-0.9,0-1.3,0
				c-0.4,0-0.8-0.1-1.3-0.2c-0.5,0-0.9,0-1.3-0.1c-0.4-0.1-0.8-0.1-1.3-0.1c-8.6-1.3-15.5-5.1-20.7-11.6c-5.2-6.5-7.8-14-7.8-22.6
				c0-11.1,4.1-21,12.2-29.6c8.1-8.7,17.9-13,29.3-13c6.9,0,13,1.8,18.4,5.4c5.4,3.6,9.4,8.3,12.1,14.3H491L483.3,269.7z
				 M436.6,263.4c-2.9-3.1-4.6-6.9-5-11.2c-2.5,1.6-4.6,3.6-6.3,6.2c-1.7,2.6-2.8,5.3-3.3,8.1c0,0.2,0,0.3,0,0.6c0,0.2,0,0.4,0,0.6
				c-0.2,0.2-0.2,0.4-0.2,0.6c0,0.2,0,0.4,0,0.6c0.2,2.8,1.1,5.3,2.7,7.5c1.6,2.2,4.1,3.3,7.4,3.3c3.1,0,6-1,8.8-3
				c2.7-2,4.9-4.4,6.4-7.3C442.9,268.5,439.4,266.5,436.6,263.4z"/>
			<path class="st1" d="M540.1,275.8h-51.5l7.5-23.2h51.7L540.1,275.8z"/>
			<path class="st1" d="M668.8,303.4h-15.9c-5.8,0-10.5-1.9-14-5.6c-3.6-3.7-5.4-8.3-5.4-13.6c0-1.1,0.1-2.2,0.4-3.4
				c0.2-1.2,0.5-2.3,0.8-3.4c0.9-3.1,1.9-6.2,2.8-9.3c0.9-3,2-6,3-9c0.2-0.5,0.3-0.9,0.5-1.3c0.2-0.4,0.2-0.7,0.2-1
				c0.3-0.8,0.6-1.6,0.9-2.5c0.3-0.9,0.5-1.7,0.5-2.5c-1.4,0.5-2.9,1.3-4.6,2.3c-1.6,1.1-3.3,2.4-5,4c-4.4,3.7-8.5,8.2-12.4,13.3
				c-3.9,5.1-6.9,10.5-9.1,15.9c-0.9,2.5-1.8,5.1-2.6,7.8c-0.8,2.7-1.6,5.4-2.3,8.1h-24.6c0.6-1.9,1.2-3.8,1.8-5.7
				c0.5-1.9,1.1-3.9,1.8-6c0.6-2,1.3-4,2-6c0.7-1.9,1.4-3.9,2.2-5.7c0.5-1.7,1-3.4,1.5-5.1c0.5-1.7,1.1-3.5,1.8-5.4
				c0.6-1.7,1.2-3.4,1.8-5.1c0.5-1.7,1.1-3.4,1.8-5.1c0.2-0.3,0.3-0.6,0.3-0.9c0.1-0.3,0.1-0.6,0.1-0.9c0.3-0.8,0.6-1.6,0.8-2.6
				c0.2-0.9,0.4-1.9,0.6-2.8c-1.2,0.5-2.7,1.3-4.4,2.3s-3.4,2.4-5.2,4c-4.4,3.9-8.5,8.3-12.5,13.3c-4,5-6.9,10.3-8.8,15.9l-5.1,15.9
				h-24.1l24.3-75.8h24.6l-1.9,5.1c1.9-1.1,3.9-2,6-2.7c2.1-0.7,4.3-1.3,6.4-1.8c0.6,0,1.3,0,2.1-0.1c0.8-0.1,1.5-0.1,2.1-0.1
				c3.6,0,6.9,0.8,9.8,2.3c3,1.6,5.5,4.2,7.5,8c0,0.2,0.1,0.3,0.2,0.5c0,0.2,0.1,0.3,0.2,0.5c4.1-3.3,8.3-6,12.6-8.2
				c4.4-2.2,8.7-3.3,13.1-3.3c1.2,0,2.5,0.1,3.9,0.4c1.3,0.2,2.6,0.6,3.9,1.1c4.7,1.9,7.9,4.6,9.7,8.3c1.8,3.7,2.7,7.7,2.7,12.1
				c0,3-0.3,5.8-0.8,8.7c-0.6,2.8-1.3,5.5-2.2,8.2c-0.5,1.1-0.9,2.2-1.3,3.4c-0.4,1.2-0.7,2.3-1.1,3.4c-0.3,1.3-0.7,2.4-1.1,3.5
				c-0.4,1.1-0.7,2.3-1.1,3.5h18.3L668.8,303.4z"/>
			<path class="st1" d="M760.5,303.4h-22.7c-2.5,0-4.8-0.4-6.8-1.2c-2-0.8-3.9-1.8-5.6-3c-2.3,1.4-4.9,2.6-7.6,3.5
				c-2.7,0.9-5.4,1.6-8.1,1.9c-0.9,0.2-1.9,0.3-2.8,0.3c-0.9,0.1-1.9,0.1-2.8,0.1c-4.8,0-9.4-1.1-13.7-3.3
				c-4.3-2.2-7.7-5.7-10.2-10.6c-0.9-2-1.6-4-2.1-6c-0.5-2-0.7-3.9-0.7-6c0-4.1,0.8-8,2.3-11.9s3.6-7.4,6.1-10.7
				c7.8-10.5,17.5-17.9,29.1-22.2c11.6-4.3,23.7-6.6,36.2-6.9c0.5,0,1,0,1.5,0c0.5,0,1.1,0,1.8,0V251c-5,0-10,0.3-14.9,0.9
				c-4.9,0.6-9.6,1.8-14.2,3.5c-4.1,1.4-7.9,3.4-11.5,5.9c-3.6,2.5-6.7,5.5-9.4,9.1c-0.2,0.3-0.4,0.7-0.7,1.2s-0.6,1-0.9,1.6
				c-0.3,0.5-0.6,0.9-0.8,1.4c-0.2,0.5-0.5,1-0.8,1.6c-0.2,0.5-0.3,1-0.5,1.6c-0.2,0.6-0.2,1.2-0.2,1.6c0,0.6,0.2,1.2,0.7,1.8
				c0.5,0.5,1.2,0.8,2.3,0.8c6.1,0,10.6-2,13.6-6.1c3-4.1,5.3-8.5,7-13.3c0.3-1.1,0.6-2.1,0.9-3c0.3-0.9,0.6-1.9,0.9-2.8l22,7.3
				l-5.1,16.2h25L760.5,303.4z"/>
			<path class="st1" d="M812,250.9h-12.4l-9.6,29.4h27.9l-7.5,23.2h-26.2c-5.6,0-10.2-1.9-13.7-5.6c-3.5-3.8-5.3-8.1-5.3-13.2
				c0-0.5,0-1,0.1-1.5c0.1-0.5,0.1-1.1,0.1-1.8c0.2-0.6,0.3-1.2,0.5-1.8c0.2-0.5,0.3-1.1,0.5-1.5l8.9-27.2h-13.1l7.7-23.2h12.9
				l8.9-27.4l22,7.3l-6.6,20.1h12.4L812,250.9z"/>
			<path class="st1" d="M859.1,303.4H838c-5.8,0-10.5-1.9-14-5.7c-3.6-3.8-5.4-8.3-5.4-13.5c0-0.6,0-1.2,0.1-1.8
				c0.1-0.5,0.1-1.1,0.1-1.8c0.2-0.5,0.3-1,0.5-1.5c0.2-0.5,0.3-1.1,0.5-1.8l15.9-49.9h24.6l-16.9,52.7h23.2L859.1,303.4z
				 M867.9,203.6c-3,3.2-6.8,4.8-11.3,4.8c-4.4,0-8.1-1.6-11.2-4.8c-3.1-3.2-4.7-7-4.7-11.4s1.6-8.1,4.7-11.2
				c3.1-3.1,6.9-4.7,11.2-4.7c4.5,0,8.3,1.6,11.3,4.7c3,3.1,4.6,6.9,4.6,11.2S870.9,200.4,867.9,203.6z"/>
			<path class="st1" d="M940.8,303.4h-52c-4.4,0-8.4-1-12.2-2.9c-3.7-1.9-6.6-4.9-8.7-8.8c-0.9-1.9-1.6-3.8-2-5.7
				c-0.4-1.9-0.6-3.9-0.6-6c0-3.9,0.6-7.7,1.8-11.5c1.2-3.7,2.5-7.3,4.1-10.5c0-0.2,0-0.3,0.1-0.3c0.1-0.1,0.1-0.2,0.1-0.4
				c4.2-8.1,10.6-15.5,19.1-22.2c8.5-6.7,17.5-10.1,27-10.1c0.3,0,0.6,0,0.8,0s0.5,0,0.8,0c0.2,0.2,0.4,0.2,0.7,0.2
				c0.3,0,0.6,0,0.9,0c5.9,0.6,10.8,2.8,14.5,6.6c3.7,3.7,5.6,8.5,5.6,14.3c0,0.2,0,0.4,0,0.7c0,0.3,0,0.6,0,0.7
				c0,0.3,0,0.6-0.1,0.8c-0.1,0.2-0.1,0.5-0.1,0.8l-1.2,10.3h-23.4l1.2-11.2c-4.5,0.3-8.8,2.1-12.9,5.4c-4.1,3.3-7.3,6.9-9.8,10.8
				c-0.5,0.8-0.9,1.5-1.3,2.1c-0.4,0.6-0.7,1.3-1.1,1.9c0,0.2-0.2,0.7-0.6,1.5c-0.4,0.9-0.8,1.9-1.3,3.2c-0.2,0.2-0.3,0.3-0.4,0.6
				c-0.1,0.2-0.2,0.4-0.3,0.6c-0.3,1.1-0.6,2.1-0.9,3.2c-0.3,1-0.5,1.8-0.5,2.2c0,0.2,0,0.3,0.1,0.5c0.1,0.2,0.2,0.2,0.4,0.2h59.7
				L940.8,303.4z"/>
		</g>
	</g>
	<g>
		<g>
			
				<ellipse transform="matrix(0.9457 -0.3249 0.3249 0.9457 -83.18 182.1049)" class="st1" cx="503.7" cy="340.1" rx="11.7" ry="9.9"/>
		</g>
		<g>
			<g>
				<polygon points="492.9,360.1 492.9,360 498.9,346.9 499,347 493.1,359.7 515.5,327.3 482.5,346.6 497,342.8 497.1,342.8 
					482,346.8 482.2,346.7 515.7,327.1 515.6,327.3 				"/>
			</g>
			<g>
				<polygon points="491.6,351.1 513.6,317.4 509.3,330.9 509.3,330.9 513.4,317.8 491.8,350.9 523.4,333.3 507.7,338.7 
					507.7,338.6 523.7,333.2 523.7,333.2 				"/>
			</g>
			<g>
				<polygon points="514.7,351.5 514.5,351.5 481.6,328.6 481.8,328.7 493.7,332.3 493.7,332.4 482,328.8 514.5,351.3 496.9,317.8 
					499,332.9 499,332.9 496.8,317.4 496.9,317.6 				"/>
			</g>
			<g>
				<polygon points="511.8,361.9 511.7,361.8 490.7,327.4 490.8,327.5 524.4,349.5 511.6,345.9 511.6,345.8 524,349.3 490.9,327.7 
					511.7,361.6 509.7,348.1 509.8,348.1 				"/>
			</g>
		</g>
		<g>
			<g>
				<circle cx="513.6" cy="317.4" r="0.7"/>
			</g>
			<g>
				<circle cx="515.6" cy="327.2" r="0.7"/>
			</g>
			<g>
				<circle cx="523.7" cy="333.2" r="0.7"/>
			</g>
			<g>
				<circle cx="524.2" cy="349.4" r="0.7"/>
			</g>
			<g>
				<circle cx="514.6" cy="351.4" r="0.7"/>
			</g>
			<g>
				<circle cx="511.7" cy="361.7" r="0.7"/>
			</g>
			<g>
				<circle cx="492.9" cy="360" r="0.7"/>
			</g>
			<g>
				<circle cx="491.7" cy="351" r="0.7"/>
			</g>
			<g>
				<circle cx="481.9" cy="346.8" r="0.7"/>
			</g>
			<g>
				<circle cx="481.8" cy="328.8" r="0.7"/>
			</g>
			<g>
				<circle cx="490.8" cy="327.6" r="0.7"/>
			</g>
			<g>
				<circle cx="496.8" cy="317.5" r="0.7"/>
			</g>
		</g>
	</g>
	<g>
		<g>
			
				<ellipse transform="matrix(0.9457 -0.3249 0.3249 0.9457 -35.7922 152.6912)" class="st1" cx="439.3" cy="183.5" rx="7.7" ry="6.6"/>
		</g>
		<g>
			<g>
				<polygon points="432.2,196.7 432.1,196.7 436.1,188 436.2,188.1 432.3,196.5 447.1,175.1 425.3,187.8 434.9,185.3 434.9,185.3 
					425,187.9 425.1,187.9 447.3,174.9 447.2,175 				"/>
			</g>
			<g>
				<polygon points="431.3,190.8 445.9,168.5 443.1,177.4 443,177.4 445.7,168.8 431.5,190.6 452.3,179 442,182.6 442,182.5 
					452.5,178.9 452.6,179 				"/>
			</g>
			<g>
				<polygon points="446.6,191.1 446.5,191 424.7,175.9 424.8,176 432.7,178.3 432.7,178.4 424.9,176 446.4,190.9 434.8,168.7 
					436.2,178.7 436.2,178.7 434.7,168.5 434.8,168.6 				"/>
			</g>
			<g>
				<polygon points="444.7,197.9 444.6,197.8 430.7,175.1 430.8,175.2 453,189.7 444.6,187.3 444.6,187.3 452.7,189.6 430.9,175.3 
					444.6,197.7 443.3,188.8 443.4,188.8 				"/>
			</g>
		</g>
		<g>
			<g>
				<circle cx="445.9" cy="168.5" r="0.4"/>
			</g>
			<g>
				<circle cx="447.2" cy="175" r="0.4"/>
			</g>
			<g>
				<circle cx="452.5" cy="178.9" r="0.4"/>
			</g>
			<g>
				<circle cx="452.9" cy="189.6" r="0.4"/>
			</g>
			<g>
				<circle cx="446.5" cy="191" r="0.4"/>
			</g>
			<g>
				<circle cx="444.6" cy="197.8" r="0.4"/>
			</g>
			<g>
				<circle cx="432.2" cy="196.7" r="0.4"/>
			</g>
			<g>
				<circle cx="431.4" cy="190.7" r="0.4"/>
			</g>
			<g>
				<circle cx="424.9" cy="187.9" r="0.4"/>
			</g>
			<g>
				<circle cx="424.8" cy="176" r="0.4"/>
			</g>
			<g>
				<circle cx="430.8" cy="175.2" r="0.4"/>
			</g>
			<g>
				<circle cx="434.7" cy="168.6" r="0.4"/>
			</g>
		</g>
	</g>
	<g>
		<g>
			
				<ellipse transform="matrix(0.9457 -0.3249 0.3249 0.9457 -23.7547 218.4445)" class="st1" cx="642.2" cy="180.4" rx="12.2" ry="10.4"/>
		</g>
		<g>
			<g>
				<polygon points="630.9,201.2 630.9,201.2 637.2,187.5 637.3,187.5 631.1,200.9 654.6,167 620,187.1 635.2,183.1 635.3,183.2 
					619.5,187.3 619.7,187.2 654.8,166.7 654.7,166.9 				"/>
			</g>
			<g>
				<polygon points="629.6,191.8 652.6,156.5 648.1,170.7 648.1,170.7 652.4,157 629.8,191.6 662.8,173.3 646.4,178.8 646.4,178.7 
					663.2,173.1 663.2,173.1 				"/>
			</g>
			<g>
				<polygon points="653.7,192.3 653.6,192.2 619,168.3 619.2,168.4 631.8,172.1 631.8,172.2 619.4,168.5 653.5,192.1 635.1,157 
					637.3,172.8 637.3,172.8 635,156.6 635.1,156.7 				"/>
			</g>
			<g>
				<polygon points="650.7,203.2 650.6,203 628.6,167.1 628.7,167.2 663.9,190.1 650.5,186.4 650.6,186.3 663.5,189.9 628.8,167.3 
					650.6,202.9 648.6,188.7 648.6,188.7 				"/>
			</g>
		</g>
		<g>
			<g>
				<circle cx="652.6" cy="156.5" r="0.7"/>
			</g>
			<g>
				<circle cx="654.7" cy="166.8" r="0.7"/>
			</g>
			<g>
				<circle cx="663.2" cy="173.1" r="0.7"/>
			</g>
			<g>
				<circle cx="663.7" cy="190" r="0.7"/>
			</g>
			<g>
				<circle cx="653.6" cy="192.2" r="0.7"/>
			</g>
			<g>
				<circle cx="650.6" cy="203" r="0.7"/>
			</g>
			<g>
				<circle cx="630.9" cy="201.2" r="0.7"/>
			</g>
			<g>
				<circle cx="629.7" cy="191.7" r="0.7"/>
			</g>
			<g>
				<circle cx="619.4" cy="187.3" r="0.7"/>
			</g>
			<g>
				<circle cx="619.2" cy="168.4" r="0.7"/>
			</g>
			<g>
				<circle cx="628.7" cy="167.2" r="0.7"/>
			</g>
			<g>
				<circle cx="635" cy="156.6" r="0.7"/>
			</g>
		</g>
	</g>
	<g>
		<g>
			
				<ellipse transform="matrix(0.4128 -0.9108 0.9108 0.4128 -63.1547 560.6262)" class="st0" cx="403.2" cy="329.3" rx="5" ry="5.2"/>
		</g>
		<g>
			<g>
				<polygon points="398.7,338.7 398.7,338.7 409.1,323.5 393.8,332.5 393.7,332.5 409.2,323.4 409.2,323.5 				"/>
			</g>
			<g>
				<polygon points="398.1,334.5 408.2,319 408.2,319 398.2,334.4 412.9,326.2 413,326.3 				"/>
			</g>
			<g>
				<polygon points="408.8,334.7 408.7,334.7 393.5,324.2 393.5,324.2 408.7,334.6 400.5,319 400.5,319 				"/>
			</g>
			<g>
				<polygon points="407.4,339.5 397.7,323.6 397.7,323.6 413.2,333.7 413.2,333.7 397.8,323.7 407.4,339.5 				"/>
			</g>
		</g>
		<g>
			<g>
				<circle cx="408.3" cy="318.9" r="0.3"/>
			</g>
			<g>
				<circle cx="409.2" cy="323.5" r="0.3"/>
			</g>
			<g>
				<circle cx="413" cy="326.2" r="0.3"/>
			</g>
			<g>
				<circle cx="413.2" cy="333.7" r="0.3"/>
			</g>
			<g>
				<circle cx="408.7" cy="334.7" r="0.3"/>
			</g>
			<g>
				<circle cx="407.4" cy="339.5" r="0.3"/>
			</g>
			<g>
				<circle cx="398.7" cy="338.7" r="0.3"/>
			</g>
			<g>
				<circle cx="398.1" cy="334.5" r="0.3"/>
			</g>
			<g>
				<circle cx="393.6" cy="332.5" r="0.3"/>
			</g>
			<g>
				<circle cx="393.5" cy="324.2" r="0.3"/>
			</g>
			<g>
				<circle cx="397.7" cy="323.6" r="0.3"/>
			</g>
			<g>
				<circle cx="400.5" cy="319" r="0.3"/>
			</g>
		</g>
	</g>
	<g>
		<g>
			
				<ellipse transform="matrix(0.4128 -0.9108 0.9108 0.4128 172.45 585.0394)" class="st0" cx="539.9" cy="158.8" rx="12.3" ry="13"/>
		</g>
		<g>
			<g>
				<polygon points="528.8,182 528.7,182 554.6,144.5 516.6,166.7 516.5,166.7 554.9,144.3 554.8,144.4 				"/>
			</g>
			<g>
				<polygon points="527.3,171.7 552.4,133.4 552.4,133.4 527.5,171.5 564,151.2 564.1,151.3 				"/>
			</g>
			<g>
				<polygon points="553.7,172.3 553.6,172.2 516,146.2 516,146.1 553.5,172 533.2,133.4 533.3,133.4 				"/>
			</g>
			<g>
				<polygon points="550.3,184 526.3,144.7 526.4,144.7 564.6,169.7 564.6,169.8 526.5,144.9 550.4,183.9 				"/>
			</g>
		</g>
		<g>
			<g>
				<circle cx="552.5" cy="133.1" r="0.8"/>
			</g>
			<g>
				<circle cx="554.8" cy="144.4" r="0.8"/>
			</g>
			<g>
				<circle cx="564.1" cy="151.2" r="0.8"/>
			</g>
			<g>
				<circle cx="564.6" cy="169.8" r="0.8"/>
			</g>
			<g>
				<circle cx="553.6" cy="172.1" r="0.8"/>
			</g>
			<g>
				<circle cx="550.3" cy="184" r="0.8"/>
			</g>
			<g>
				<circle cx="528.8" cy="182" r="0.8"/>
			</g>
			<g>
				<circle cx="527.4" cy="171.6" r="0.8"/>
			</g>
			<g>
				<circle cx="516.2" cy="166.8" r="0.8"/>
			</g>
			<g>
				<circle cx="516" cy="146.2" r="0.8"/>
			</g>
			<g>
				<circle cx="526.4" cy="144.8" r="0.8"/>
			</g>
			<g>
				<circle cx="533.2" cy="133.3" r="0.8"/>
			</g>
		</g>
	</g>
	<g>
		<g>
			<ellipse transform="matrix(0.4128 -0.9108 0.9108 0.4128 55.6471 756.3022)" class="st0" cx="614.4" cy="335" rx="9" ry="9.4"/>
		</g>
		<g>
			<g>
				<polygon points="606.2,351.9 606.2,351.9 625,324.6 597.4,340.8 597.3,340.7 625.2,324.5 625.2,324.6 				"/>
			</g>
			<g>
				<polygon points="605.2,344.4 623.4,316.5 623.4,316.5 605.3,344.2 631.9,329.5 631.9,329.5 				"/>
			</g>
			<g>
				<polygon points="624.3,344.8 624.3,344.7 596.9,325.8 597,325.8 624.2,344.6 609.5,316.5 609.5,316.5 				"/>
			</g>
			<g>
				<polygon points="621.9,353.3 604.4,324.7 604.5,324.8 632.3,343 632.3,343 604.6,324.9 621.9,353.3 				"/>
			</g>
		</g>
		<g>
			<g>
				<circle cx="623.5" cy="316.4" r="0.6"/>
			</g>
			<g>
				<circle cx="625.1" cy="324.6" r="0.6"/>
			</g>
			<g>
				<circle cx="631.9" cy="329.5" r="0.6"/>
			</g>
			<g>
				<circle cx="632.3" cy="343" r="0.6"/>
			</g>
			<g>
				<circle cx="624.3" cy="344.7" r="0.6"/>
			</g>
			<g>
				<circle cx="621.9" cy="353.3" r="0.6"/>
			</g>
			<g>
				<circle cx="606.2" cy="351.9" r="0.6"/>
			</g>
			<g>
				<circle cx="605.2" cy="344.3" r="0.6"/>
			</g>
			<g>
				<circle cx="597.1" cy="340.8" r="0.6"/>
			</g>
			<g>
				<circle cx="596.9" cy="325.8" r="0.6"/>
			</g>
			<g>
				<circle cx="604.5" cy="324.8" r="0.6"/>
			</g>
			<g>
				<circle cx="609.5" cy="316.4" r="0.6"/>
			</g>
		</g>
	</g>
</g>
</svg>
