<?xml version="1.0" encoding="utf-8"?>
<!-- Generator: Adobe Illustrator 22.1.0, SVG Export Plug-In . SVG Version: 6.00 Build 0)  -->
<svg version="1.1" id="Layer_1" xmlns="http://www.w3.org/2000/svg" xmlns:xlink="http://www.w3.org/1999/xlink" x="0px" y="0px"
	 viewBox="0 0 550 550" style="enable-background:new 0 0 550 550;" xml:space="preserve">
<style type="text/css">
	.st0{fill:#FC510B;}
	.st1{fill:#6AC5F4;}
</style>
<g>
	<g>
		
			<ellipse transform="matrix(0.9457 -0.3249 0.3249 0.9457 -75.9632 107.1542)" class="st1" cx="282.9" cy="281" rx="127.5" ry="108.7"/>
	</g>
	<g>
		<g>
			<polygon points="164.9,499.1 164.3,498.7 230.4,355.7 231.1,356 166.7,495.2 411.7,141.2 50.8,351.9 210.1,310.1 210.2,310.8 
				45.8,354 48.1,352.7 414.2,138.9 413.3,140.3 			"/>
		</g>
		<g>
			<polygon points="150.6,400.8 391.5,32.3 344.7,180.3 343.9,180.1 389.2,37.2 152.9,398.7 498,206.9 326.9,265 326.6,264.3 
				501.6,204.9 501.9,205.6 			"/>
		</g>
		<g>
			<polygon points="402.7,406 401.5,405.1 40.8,155.4 43,156 174,195.4 173.8,196.1 45.1,157.4 400.7,403.6 208.4,36.8 231.8,201.9 
				231,202 207,32.7 208,34.6 			"/>
		</g>
		<g>
			<polygon points="371.2,519.3 370.3,517.8 140.9,142.4 142.2,143.3 509.3,383.1 369.7,344.2 369.9,343.5 504.9,381.1 143.2,144.8 
				370,515.9 349.1,368.6 349.8,368.5 			"/>
		</g>
	</g>
	<g>
		<g>
			<circle cx="391.1" cy="32.4" r="7.4"/>
		</g>
		<g>
			<circle cx="413" cy="140.1" r="7.4"/>
		</g>
		<g>
			<circle cx="501.7" cy="205.1" r="7.4"/>
		</g>
		<g>
			<circle cx="507.1" cy="382.2" r="7.4"/>
		</g>
		<g>
			<circle cx="401.7" cy="404.8" r="7.4"/>
		</g>
		<g>
			<circle cx="370.3" cy="517.6" r="7.4"/>
		</g>
		<g>
			<circle cx="165" cy="498.9" r="7.4"/>
		</g>
		<g>
			<circle cx="151.8" cy="399.8" r="7.4"/>
		</g>
		<g>
			<circle cx="44.9" cy="353.9" r="7.4"/>
		</g>
		<g>
			<circle cx="42.9" cy="156.7" r="7.4"/>
		</g>
		<g>
			<circle cx="142" cy="143.6" r="7.4"/>
		</g>
		<g>
			<circle cx="207.1" cy="33.6" r="7.4"/>
		</g>
	</g>
</g>
</svg>
